<svg width="68" height="68" viewBox="0 0 68 68" fill="none" xmlns="http://www.w3.org/2000/svg">
<path d="M55.5022 58.5456C62.2958 52.5741 66.5834 43.8197 66.5834 34.0638C66.5834 25.8218 63.5232 18.2946 58.4771 12.5563M9.55708 12.5176C4.49069 18.2607 1.41675 25.8033 1.41675 34.0638C1.41675 43.6273 5.53689 52.2285 12.099 58.1891M34.8501 18.4167V38.25M34.8501 42.5V48.1667M34.0001 59.5C48.0833 59.5 59.5001 48.0833 59.5001 34C59.5001 19.9167 48.0833 8.5 34.0001 8.5C19.9168 8.5 8.50008 19.9167 8.50008 34C8.50008 48.0833 19.9168 59.5 34.0001 59.5Z" stroke="white" stroke-opacity="0.31"/>
</svg>
