<svg width="52" height="52" viewBox="0 0 52 52" fill="none" xmlns="http://www.w3.org/2000/svg">
<g clip-path="url(#clip0_26_2)">
<path fill-rule="evenodd" clip-rule="evenodd" d="M4.30372 21.015C-0.342762 18.6536 0.190441 16.0215 4.85808 16.2965L5.90333 18.2559L8.0573 11.557C8.90366 8.92057 10.3128 6.52962 13.0762 6.52962H40.625C43.3884 6.52962 44.9795 8.87402 45.6481 11.5527L47.2647 18.0485L48.1956 16.2965C52.9945 16.0172 53.4219 18.806 48.3438 21.2139L49.169 22.4792C52.5078 25.9111 52.1947 31.9795 51.6742 40.4557V43.9004C51.6742 44.7637 50.9675 45.4704 50.1042 45.4704H43.4053C42.542 45.4704 41.8353 44.7637 41.8353 43.9004V41.9792H10.1732V43.9004C10.1732 44.7637 9.46648 45.4704 8.6032 45.4704H1.90431C1.04103 45.4704 0.334321 44.7637 0.334321 43.9004V39.6221C0.334321 39.5374 0.342784 39.457 0.351248 39.3766C-0.156565 32.8724 -0.871734 24.3665 4.30372 21.015ZM12.8561 31.3701L6.90626 30.6211C5.50131 30.4645 5.12468 31.057 5.60287 32.2672L6.2461 33.8288C6.45346 34.2308 6.72853 34.5228 7.05014 34.7259C7.42677 34.9587 7.87957 35.0729 8.38315 35.0941L13.6898 35.1364C14.972 35.1322 15.5264 34.6201 15.1244 33.4437C14.7943 32.3392 14.041 31.6452 12.8561 31.3701ZM23.0124 28.8691H29.1061C29.4658 28.8691 29.7621 29.1654 29.7621 29.5251C29.7621 29.8848 29.4658 30.181 29.1061 30.181H23.0124C22.6527 30.181 22.3565 29.8848 22.3565 29.5251C22.3522 29.1654 22.6484 28.8691 23.0124 28.8691ZM38.069 37.485H44.1628C44.5225 37.485 44.8187 37.7812 44.8187 38.1409C44.8187 38.5006 44.5225 38.7969 44.1628 38.7969H38.069C37.7093 38.7969 37.4131 38.5006 37.4131 38.1409C37.4131 37.7812 37.7051 37.485 38.069 37.485ZM39.1439 31.3701L45.0938 30.6211C46.4987 30.4645 46.8753 31.057 46.3971 32.2672L45.7539 33.8288C45.5466 34.2308 45.2715 34.5228 44.9499 34.7259C44.5732 34.9587 44.1204 35.0729 43.6169 35.0941L38.3102 35.1364C37.028 35.1322 36.4736 34.6201 36.8757 33.4437C37.2057 32.3392 37.959 31.6452 39.1439 31.3701ZM7.7907 37.485H13.8844C14.2442 37.485 14.5404 37.7812 14.5404 38.1409C14.5404 38.5006 14.2442 38.7969 13.8844 38.7969H7.7907C7.431 38.7969 7.13478 38.5006 7.13478 38.1409C7.13478 37.7812 7.431 37.485 7.7907 37.485ZM8.1377 19.7327H44.8779L43.2572 12.9958C42.8128 10.9434 41.5348 9.16601 39.4274 9.16601H13.9902C11.8871 9.16601 10.808 10.9899 10.1605 12.9958L8.1377 19.7327Z" fill="#E8E8E8"/>
</g>
<defs>
<clipPath id="clip0_26_2">
<rect width="52" height="52" fill="white"/>
</clipPath>
</defs>
</svg>
